# xmcd
#
# Track frame offsets:
#	150
#	16539
#	31414
#	48832
#	64631
#	84700
#	100384
#	113489
#	130953
#	146054
#	164063
#
# Disc length: 2465 seconds
# Revision: 0
# Processed by: cddbd v1.5.2PL0 Copyright (c) Steve Scherf et al.
# Submitted via: dBpowerAMP V12.0
#
DISCID=8d099f0b
DTITLE=BettySoo - Heat Sin Water Skin
DYEAR=2009
DGENRE=Blues
TTITLE0=Never Knew No Love
TTITLE1=Just Another Lover
TTITLE2=Whisper My Name
TTITLE3=Who Knows
TTITLE4=Forever
TTITLE5=Get Clean
TTITLE6=What We've Got
TTITLE7=Never The Pretty Girl
TTITLE8=Still Small Voice
TTITLE9=Next Big Thing
TTITLE10=Lonesome Whistle
EXTD=
EXTT0=
EXTT1=
EXTT2=
EXTT3=
EXTT4=
EXTT5=
EXTT6=
EXTT7=
EXTT8=
EXTT9=
EXTT10=
PLAYORDER=
